<svg version="1.1" id="Capa_1" xmlns="http://www.w3.org/2000/svg" xmlns:xlink="http://www.w3.org/1999/xlink" x="0px" y="0px" viewBox="0 0 1200 1200" enable-background="new 0 0 1200 1200" xml:space="preserve">
<g>
	<path fill="#6D966B" d="M493.261,1071.939l10.682-138.634c-32.643-58.539-95.121-97.837-166.412-97.837H231.656l75.314,75.314&#10;&#9;&#9;l-160.166-88.108c0,180.777,146.549,327.326,327.326,327.326h62.827C509.109,1135.545,490.772,1105.56,493.261,1071.939z" style="fill: rgb(83, 199, 77);"/>
	<path fill="#6D966B" d="M886.856,901.561l78.217-78.217H855.117c-84.626,0-157.275,53.325-185.365,128.87l-22.733-332.777&#10;&#9;&#9;c0-12.337,5.1-24.125,14.093-32.569l49.898-22.376c68.302-30.629,113.332-97.77,114.709-172.612&#10;&#9;&#9;c0.011-0.607,0.017-1.117,0.017-1.523V94.679c0-24.675-20.004-44.679-44.679-44.679h-2.292c-24.675,0-44.678,20.003-44.678,44.678&#10;&#9;&#9;v196.474c0,24.676-20.004,44.679-44.679,44.679h-0.001c-24.675,0-44.678-20.003-44.678-44.678V94.679&#10;&#9;&#9;c0-24.675-20.004-44.679-44.679-44.679h-2.292c-24.675,0-44.679,20.003-44.679,44.678v196.474&#10;&#9;&#9;c0,24.676-20.003,44.679-44.679,44.679c-24.675,0-44.679-20.003-44.679-44.678V99.261c0-24.675-20.003-44.679-44.679-44.679h-2.291&#10;&#9;&#9;c-24.675,0-44.679,20.004-44.679,44.679v290.76c0,0.385,0.005,0.861,0.015,1.421c1.301,74.931,46.723,142.052,115.396,172.056&#10;&#9;&#9;l53.381,23.322c9.243,8.464,14.507,20.42,14.507,32.952l-34.365,445.972c-3.041,41.094,26.077,76.597,65.354,83.095l-1.086,1.161&#10;&#9;&#9;h127.979c187.745,0,339.943-152.197,339.943-339.943L886.856,901.561z" style="fill: rgb(83, 199, 77);"/>
</g>
</svg>